<?xml version="1.0" standalone="no"?>
<!DOCTYPE svg PUBLIC "-//W3C//DTD SVG 20010904//EN"
 "http://www.w3.org/TR/2001/REC-SVG-20010904/DTD/svg10.dtd">
<svg version="1.0" xmlns="http://www.w3.org/2000/svg"
 width="1024.000000pt" height="1024.000000pt" viewBox="0 0 1024.000000 1024.000000"
 preserveAspectRatio="xMidYMid meet">
<metadata>
Created by potrace 1.14, written by Peter Selinger 2001-2017
</metadata>
<g transform="translate(0.000000,1024.000000) scale(0.100000,-0.100000)"
fill="#000000" stroke="none">
<path d="M0 5120 l0 -5120 5120 0 5120 0 0 5120 0 5120 -5120 0 -5120 0 0
-5120z m5475 2576 c244 -39 429 -89 635 -173 276 -111 482 -239 740 -459 281
-239 542 -622 673 -989 117 -324 153 -563 144 -934 -8 -346 -63 -599 -194
-900 -143 -329 -299 -563 -539 -806 -134 -135 -220 -209 -234 -200 -6 4 -9 1
-8 -6 5 -20 -213 -169 -237 -163 -15 4 -17 3 -6 -4 11 -8 8 -13 -16 -26 -17
-8 -33 -12 -37 -9 -3 4 -6 2 -6 -4 0 -6 -7 -14 -16 -17 -10 -4 -13 -2 -9 7 4
6 -2 2 -12 -10 -58 -70 -586 -252 -688 -237 -26 4 -27 3 -10 -6 17 -9 17 -10
-7 -5 -14 3 -28 1 -30 -5 -3 -9 -21 -12 -120 -25 -15 -2 -29 3 -32 10 -8 22 6
26 26 8 20 -18 23 -11 8 18 -8 13 -7 19 0 19 6 0 8 5 5 10 -3 6 -1 10 5 10 7
0 10 -6 7 -14 -3 -8 0 -21 6 -29 11 -13 14 -13 32 5 20 20 20 20 -10 12 -26
-6 -28 -5 -17 8 10 13 10 17 -3 21 -8 4 -12 13 -9 22 4 10 0 15 -10 15 -9 0
-16 -5 -16 -11 0 -5 4 -7 10 -4 5 3 7 0 4 -9 -5 -12 -8 -12 -23 2 -10 9 -16
24 -13 32 3 13 2 13 -6 1 -6 -8 -8 -25 -6 -39 4 -22 3 -24 -11 -12 -8 7 -15 9
-15 4 0 -5 -4 -4 -8 3 -11 17 -92 5 -92 -15 0 -12 2 -12 17 -1 15 12 16 12 8
-1 -8 -13 -7 -13 9 -1 9 8 16 10 15 5 -6 -25 36 -78 53 -68 5 3 3 15 -3 26 -9
17 -13 18 -21 7 -6 -10 -7 -7 -3 10 5 16 4 21 -4 17 -6 -4 -11 0 -11 10 0 16
1 16 19 0 11 -10 25 -15 31 -11 9 5 10 1 5 -15 -5 -15 -2 -26 6 -31 12 -8 11
-11 -1 -19 -19 -13 -120 -10 -120 3 0 5 -7 4 -15 -3 -8 -6 -23 -9 -36 -5 -12
4 -19 3 -16 -1 3 -5 -13 -9 -34 -10 -24 0 -38 4 -36 10 2 6 -3 16 -12 23 -11
9 -12 12 -3 13 7 0 11 4 8 9 -3 5 -21 5 -41 1 -19 -4 -35 -7 -36 -6 -6 12 -5
36 2 36 5 0 9 -5 9 -12 0 -6 2 -9 5 -6 3 3 3 13 -1 22 -6 14 -8 14 -33 -3 -34
-23 -71 -33 -72 -18 0 7 -4 3 -8 -8 -12 -29 -2 -39 20 -19 11 10 19 12 19 6 0
-7 -4 -12 -10 -12 -5 0 -10 -8 -10 -17 0 -13 3 -14 12 -5 7 7 23 12 37 12 19
0 22 3 12 9 -8 5 -9 11 -3 15 6 3 13 2 16 -2 3 -5 17 -7 31 -4 19 3 25 0 25
-12 0 -13 -4 -15 -18 -7 -11 6 -24 6 -33 0 -7 -5 -25 -9 -39 -10 l-25 -1 25
-8 c25 -8 25 -8 -4 -9 -16 -1 -38 7 -49 16 -20 17 -20 17 -13 -1 5 -15 4 -17
-7 -8 -8 7 -17 9 -20 5 -4 -3 -7 0 -7 7 0 11 -3 11 -12 2 -7 -7 -19 -12 -27
-12 -11 0 -7 6 10 18 14 9 24 23 21 31 -3 8 0 11 7 7 6 -4 11 -14 11 -22 0
-24 16 -15 18 11 1 21 -2 24 -21 21 -12 -3 -26 -5 -30 -5 -5 -1 -5 -7 -1 -13
6 -10 4 -10 -8 0 -10 8 -19 9 -22 3 -3 -5 0 -11 6 -14 7 -2 9 -8 5 -13 -4 -5
-12 -2 -17 6 -6 9 -5 19 0 24 6 6 5 15 -3 25 -10 12 -9 14 8 7 20 -7 20 -7 0
12 -11 10 -21 15 -23 11 -2 -5 -10 -9 -18 -9 -8 0 -14 -4 -14 -10 0 -5 7 -7
15 -4 11 5 15 -1 15 -18 0 -14 -3 -28 -7 -31 -9 -10 -64 44 -57 55 3 5 2 8 -3
7 -21 -4 -24 2 -12 19 12 15 12 16 -2 5 -9 -7 -20 -9 -25 -5 -5 4 1 -5 14 -19
12 -14 22 -28 22 -32 0 -9 -50 14 -51 25 -1 4 -2 13 -3 20 0 6 -9 12 -19 14
-18 2 -18 2 0 -18 10 -12 13 -18 7 -15 -12 7 -31 -10 -34 -28 0 -5 -15 -9 -32
-7 -18 2 -28 0 -24 -6 12 -19 -84 -5 -100 14 -9 11 -13 13 -9 7 8 -16 -4 -16
-61 -2 -24 6 -44 17 -44 25 0 7 -5 16 -12 20 -8 5 -9 2 -5 -9 4 -12 1 -17 -9
-17 -10 0 -14 6 -10 15 3 9 0 15 -10 15 -8 0 -12 -4 -9 -10 3 -5 4 -10 1 -10
-15 0 -178 56 -222 76 -29 13 -58 24 -64 24 -6 0 -8 6 -4 13 4 6 4 9 0 5 -12
-10 -67 13 -59 25 3 5 1 7 -5 3 -13 -8 -63 14 -57 24 3 4 -3 7 -13 6 -9 0 -16
5 -14 12 1 8 -2 11 -8 7 -6 -4 -18 1 -26 11 -9 11 -12 13 -9 6 6 -11 3 -12
-14 -2 -12 6 -19 15 -16 20 3 5 0 12 -6 16 -8 4 -9 3 -5 -4 4 -7 2 -12 -3 -12
-6 0 -11 5 -11 12 0 6 -3 8 -6 5 -11 -10 -45 13 -38 25 4 7 3 8 -4 4 -16 -10
-157 85 -280 189 -91 76 -102 89 -90 103 11 15 11 15 -3 5 -13 -11 -21 -7 -47
20 -18 18 -29 37 -25 42 5 4 3 5 -3 2 -16 -9 -96 77 -227 244 -11 13 -49 69
-86 124 -209 310 -346 661 -402 1035 -24 154 -28 469 -10 650 23 222 119 572
213 783 56 124 183 334 270 446 73 95 307 336 409 423 77 66 276 196 399 261
270 142 670 263 985 295 126 14 441 6 560 -12z m5 -4920 c-7 -9 -17 -16 -22
-16 -6 0 -5 7 2 15 7 8 9 23 6 32 -7 17 -6 17 10 1 14 -14 15 -20 4 -32z
m-670 -18 c0 -4 8 -8 18 -8 14 0 15 2 2 10 -8 5 -11 10 -6 10 6 0 23 -12 39
-27 17 -16 27 -23 23 -16 -3 6 -2 14 3 17 5 3 11 -3 14 -15 5 -19 3 -20 -51
-13 -31 4 -60 12 -64 18 -5 7 -8 6 -8 -4 0 -9 -3 -11 -8 -5 -4 6 -16 10 -27
10 -11 -1 -31 2 -45 6 -22 7 -21 8 10 7 53 0 60 1 60 12 0 5 -7 7 -15 4 -8 -4
-15 -1 -15 6 0 6 5 8 10 5 6 -3 10 -2 10 4 0 7 8 7 25 -1 14 -6 25 -15 25 -20z
m290 18 c0 -3 -4 -8 -10 -11 -5 -3 -10 -1 -10 4 0 6 5 11 10 11 6 0 10 -2 10
-4z m74 -67 c-2 -4 -21 -7 -41 -7 -28 0 -33 2 -18 8 24 9 65 8 59 -1z"/>
<path d="M4968 7360 c-684 -61 -1270 -403 -1636 -956 -107 -161 -218 -411
-276 -619 -59 -213 -71 -310 -70 -585 0 -239 2 -264 28 -390 92 -447 304 -843
615 -1149 184 -180 332 -287 534 -386 460 -224 986 -286 1482 -175 227 51 523
177 715 305 167 111 357 290 489 460 229 294 370 610 437 975 26 138 29 177
29 355 -1 448 -113 829 -352 1200 -251 387 -590 658 -1034 824 -316 118 -658
168 -961 141z m270 -294 l37 -34 3 -278 c2 -196 -1 -286 -9 -306 -17 -41 -62
-70 -112 -70 -53 -1 -82 14 -107 55 -18 30 -20 52 -20 300 0 294 4 316 58 349
15 10 46 18 70 18 34 0 49 -6 80 -34z m-1080 -300 c44 -23 645 -651 1292
-1351 101 -110 229 -245 282 -300 l98 -100 0 791 0 791 23 34 c46 68 138 70
204 4 l33 -33 0 -1026 c0 -773 -3 -1031 -12 -1051 -20 -44 -99 -69 -152 -49
-8 3 -91 89 -183 191 -92 103 -199 221 -238 264 -189 208 -594 650 -715 779
-75 80 -242 258 -371 395 -128 138 -259 277 -290 310 -128 136 -169 193 -169
235 0 34 38 98 68 114 35 19 95 20 130 2z m2343 -252 c16 -8 38 -32 49 -54 20
-39 20 -52 18 -1283 l-3 -1244 -28 -36 c-18 -24 -42 -41 -68 -49 -36 -10 -46
-10 -77 8 -19 10 -45 32 -56 47 -21 28 -21 31 -24 1262 -2 892 0 1245 8 1275
24 87 98 118 181 74z m-2559 -152 c62 -36 59 32 56 -1254 -3 -1115 -4 -1174
-21 -1200 -27 -40 -65 -60 -110 -60 -48 1 -85 25 -109 73 -17 32 -18 109 -18
1184 0 790 3 1162 11 1189 24 86 108 116 191 68z m461 -571 c14 -5 116 -110
228 -233 111 -123 291 -320 399 -438 193 -211 507 -557 899 -993 351 -391 351
-391 351 -442 0 -67 -72 -135 -144 -135 -38 0 -98 29 -113 54 -5 8 -62 71
-128 142 -66 70 -150 160 -186 199 -36 38 -114 126 -175 195 -60 69 -128 145
-150 170 -23 25 -97 106 -165 181 -68 76 -212 233 -319 351 -107 118 -242 269
-300 336 -58 66 -108 121 -112 121 -5 1 -8 -369 -8 -821 0 -797 -1 -824 -19
-852 -27 -40 -57 -55 -113 -56 -60 0 -105 36 -118 95 -5 22 -8 482 -7 1040 2
934 3 1002 20 1032 29 55 98 77 160 54z m-973 -510 c33 -23 70 -89 70 -124 1
-143 -188 -198 -267 -78 -84 125 75 288 197 202z m3605 -12 c59 -52 71 -144
25 -202 -26 -33 -100 -61 -141 -53 -43 8 -84 40 -103 80 -21 45 -20 83 3 126
44 84 149 107 216 49z m-1811 -1320 c51 -40 56 -69 56 -346 0 -275 -5 -306
-54 -338 -66 -43 -153 -19 -182 50 -21 51 -21 543 1 585 36 69 123 93 179 49z"/>
<path d="M6353 3339 c-35 -23 -45 -36 -14 -20 10 6 22 7 27 3 5 -4 6 -3 2 2
-4 5 0 15 10 22 27 21 11 16 -25 -7z"/>
<path d="M6355 3300 c-3 -5 -1 -10 4 -10 6 0 11 5 11 10 0 6 -2 10 -4 10 -3 0
-8 -4 -11 -10z"/>
<path d="M6210 3249 c0 -5 5 -7 10 -4 6 3 10 8 10 11 0 2 -4 4 -10 4 -5 0 -10
-5 -10 -11z"/>
<path d="M6276 3238 c3 -5 10 -6 15 -3 13 9 11 12 -6 12 -8 0 -12 -4 -9 -9z"/>
<path d="M6286 3203 c-6 -14 -5 -15 5 -6 7 7 10 15 7 18 -3 3 -9 -2 -12 -12z"/>
<path d="M6345 3211 c-3 -5 -2 -12 3 -15 5 -3 9 1 9 9 0 17 -3 19 -12 6z"/>
<path d="M6150 3117 c0 -2 6 -10 14 -16 11 -9 16 -9 22 1 4 7 4 10 -1 6 -4 -4
-14 -3 -22 3 -7 6 -13 9 -13 6z"/>
<path d="M6409 3093 c-8 -9 -9 -14 -2 -10 6 4 13 2 15 -5 3 -9 6 -9 12 0 4 7
2 12 -4 12 -6 0 -8 5 -5 10 10 16 -1 11 -16 -7z"/>
<path d="M6195 3091 c-3 -5 -1 -12 5 -16 6 -4 7 -11 4 -17 -4 -7 -2 -8 5 -4 8
6 9 12 2 20 -6 7 -8 16 -4 19 3 4 4 7 0 7 -3 0 -8 -4 -12 -9z"/>
<path d="M3877 3079 c7 -7 15 -10 18 -7 3 3 -2 9 -12 12 -14 6 -15 5 -6 -5z"/>
<path d="M6336 3053 c-8 -20 9 -40 19 -22 6 8 4 10 -5 4 -9 -5 -10 -2 -5 14 8
25 0 29 -9 4z"/>
<path d="M4568 3042 c-18 -11 -19 -12 -3 -6 11 4 28 6 37 6 10 0 20 3 22 6 8
13 -33 8 -56 -6z"/>
<path d="M5825 3051 c-3 -5 -2 -12 3 -15 5 -3 9 1 9 9 0 17 -3 19 -12 6z"/>
<path d="M6040 3024 c0 -8 5 -12 10 -9 6 4 8 11 5 16 -9 14 -15 11 -15 -7z"/>
<path d="M6177 3029 c7 -7 15 -10 18 -7 3 3 -2 9 -12 12 -14 6 -15 5 -6 -5z"/>
<path d="M4596 3022 c-3 -5 1 -9 9 -9 8 0 12 4 9 9 -3 4 -7 8 -9 8 -2 0 -6 -4
-9 -8z"/>
<path d="M4726 3018 c3 -5 10 -6 15 -3 13 9 11 12 -6 12 -8 0 -12 -4 -9 -9z"/>
<path d="M5556 3022 c-3 -5 1 -9 9 -9 8 0 12 4 9 9 -3 4 -7 8 -9 8 -2 0 -6 -4
-9 -8z"/>
<path d="M5941 3017 c-8 -10 -7 -14 2 -14 8 0 14 6 14 14 0 7 -1 13 -2 13 -2
0 -8 -6 -14 -13z"/>
<path d="M6143 3010 c-8 -12 -9 -21 -3 -25 6 -4 9 -1 8 7 -2 7 2 12 9 11 7 -2
10 4 7 12 -8 19 -7 19 -21 -5z"/>
<path d="M6210 3022 c0 -6 -8 -13 -17 -15 -16 -4 -16 -5 -1 -6 18 -1 34 16 24
26 -3 4 -6 1 -6 -5z"/>
<path d="M4070 3010 c-9 -6 -10 -10 -3 -10 6 0 15 5 18 10 8 12 4 12 -15 0z"/>
<path d="M6078 3013 c-27 -7 -21 -18 10 -19 15 -1 21 1 14 3 -6 3 -10 9 -6 14
3 5 4 8 2 8 -2 -1 -11 -3 -20 -6z"/>
<path d="M4868 3003 c6 -2 18 -2 25 0 6 3 1 5 -13 5 -14 0 -19 -2 -12 -5z"/>
<path d="M5469 2997 c6 -8 7 -18 3 -22 -4 -5 -1 -5 6 -1 10 6 10 11 1 22 -6 8
-14 14 -16 14 -3 0 0 -6 6 -13z"/>
<path d="M5975 3000 c-3 -5 -1 -10 4 -10 6 0 11 5 11 10 0 6 -2 10 -4 10 -3 0
-8 -4 -11 -10z"/>
<path d="M5576 2983 c-6 -14 -5 -15 5 -6 7 7 10 15 7 18 -3 3 -9 -2 -12 -12z"/>
<path d="M4680 2980 c0 -5 5 -10 11 -10 5 0 7 5 4 10 -3 6 -8 10 -11 10 -2 0
-4 -4 -4 -10z"/>
<path d="M4944 2978 c-4 -7 -4 -10 1 -6 4 4 15 2 24 -5 14 -11 14 -10 2 6 -16
20 -18 21 -27 5z"/>
<path d="M5120 2981 c0 -10 19 -25 25 -20 1 2 -3 10 -11 17 -8 7 -14 8 -14 3z"/>
<path d="M5273 2962 c0 -12 3 -19 6 -17 2 3 11 -1 20 -7 10 -8 8 -3 -4 12 -11
14 -21 27 -22 29 -1 2 -1 -6 0 -17z"/>
<path d="M5373 2965 c0 -8 4 -12 9 -9 5 3 6 10 3 15 -9 13 -12 11 -12 -6z"/>
<path d="M5600 2971 c0 -6 4 -13 10 -16 6 -3 7 1 4 9 -7 18 -14 21 -14 7z"/>
<path d="M6113 2968 c-14 -23 -11 -38 9 -49 13 -7 23 -7 32 0 7 6 16 8 19 4 4
-3 7 1 7 10 0 10 -5 14 -15 11 -8 -4 -15 -10 -15 -14 0 -5 -9 -6 -19 -3 -19 5
-22 18 -8 41 5 6 6 12 3 12 -3 0 -8 -6 -13 -12z"/>
<path d="M4721 2961 c-8 -5 -9 -11 -3 -15 5 -3 12 1 16 9 6 17 6 18 -13 6z"/>
<path d="M5906 2953 c-6 -14 -5 -15 5 -6 7 7 10 15 7 18 -3 3 -9 -2 -12 -12z"/>
<path d="M6145 2960 c-13 -6 -15 -9 -5 -9 8 0 22 4 30 9 18 12 2 12 -25 0z"/>
<path d="M4850 2951 c0 -6 4 -13 10 -16 6 -3 7 1 4 9 -7 18 -14 21 -14 7z"/>
<path d="M5578 2953 c10 -4 10 -8 0 -21 -12 -15 -11 -16 4 -3 19 14 15 32 -5
30 -8 0 -8 -2 1 -6z"/>
<path d="M6196 2947 c3 -10 9 -15 12 -12 3 3 0 11 -7 18 -10 9 -11 8 -5 -6z"/>
<path d="M4279 2945 c-1 -3 -2 -9 -3 -14 0 -5 -11 -21 -23 -35 -23 -26 -18
-36 6 -13 11 10 13 9 8 -5 -7 -20 19 -33 27 -13 3 8 -2 18 -11 23 -9 5 -13 15
-9 21 4 6 13 8 19 4 8 -5 8 -2 0 9 -7 8 -10 18 -6 21 3 4 3 7 0 7 -4 0 -8 -2
-8 -5z"/>
<path d="M4360 2941 c0 -7 -5 -9 -12 -5 -7 5 -8 3 -3 -5 5 -9 10 -10 18 -2 6
6 8 14 4 18 -4 3 -7 1 -7 -6z"/>
<path d="M4543 2929 c-2 -23 3 -25 10 -4 4 8 3 16 -1 19 -4 3 -9 -4 -9 -15z"/>
<path d="M5950 2937 c0 -9 -7 -20 -16 -25 -14 -8 -14 -10 -1 -15 10 -4 17 2
22 20 3 14 4 28 0 31 -3 3 -5 -2 -5 -11z"/>
<path d="M5976 2938 c3 -5 10 -6 15 -3 13 9 11 12 -6 12 -8 0 -12 -4 -9 -9z"/>
<path d="M6028 2933 c7 -3 16 -2 19 1 4 3 -2 6 -13 5 -11 0 -14 -3 -6 -6z"/>
<path d="M4425 2920 c-3 -6 1 -7 9 -4 18 7 21 14 7 14 -6 0 -13 -4 -16 -10z"/>
<path d="M5114 2913 c19 -23 14 -29 -19 -24 -5 1 1 -8 15 -19 28 -22 47 -25
70 -10 11 7 6 8 -17 4 -29 -6 -32 -4 -28 14 2 12 -5 28 -18 39 l-22 18 19 -22z"/>
<path d="M5844 2907 c19 -31 13 -55 -10 -36 -11 9 -15 8 -20 -5 -6 -16 -8 -15
-26 1 -11 9 -18 13 -17 8 4 -16 -12 -45 -21 -40 -5 3 -12 0 -16 -6 -4 -7 -3
-9 4 -5 6 3 13 -3 17 -14 3 -11 11 -20 18 -20 8 0 8 3 -1 12 -19 19 -14 26 13
24 13 -2 23 0 22 4 -1 5 3 7 8 7 6 -1 9 -5 8 -8 -1 -3 5 -6 13 -6 19 0 18 7
-3 24 -14 11 -15 13 -3 12 46 -4 52 11 19 51 l-21 25 16 -28z m-62 -69 c-7 -7
-12 -8 -12 -2 0 14 12 26 19 19 2 -3 -1 -11 -7 -17z"/>
<path d="M6055 2919 c-4 -6 -13 -8 -21 -5 -8 3 -11 0 -7 -10 5 -15 23 -20 23
-6 0 4 9 8 20 8 12 0 19 -5 16 -13 -3 -7 1 -10 10 -6 18 7 18 13 -3 29 -22 16
-30 17 -38 3z"/>
<path d="M5621 2901 c-6 -10 -8 -21 -5 -24 3 -2 -7 -14 -22 -26 -17 -14 -21
-21 -12 -21 9 0 21 -7 28 -15 8 -9 9 -15 2 -15 -6 0 -14 5 -17 10 -3 6 -13 10
-21 10 -8 0 -12 -5 -9 -10 4 -6 11 -7 17 -4 7 4 8 2 4 -4 -4 -6 -14 -9 -24 -6
-13 4 -12 3 2 -7 14 -9 21 -9 24 -1 2 6 10 8 17 5 12 -4 12 -10 3 -26 -11 -21
-10 -22 9 -4 11 10 34 19 52 20 31 2 45 17 15 17 -8 0 -12 5 -9 10 3 6 2 10
-4 10 -16 0 -22 -18 -9 -23 7 -2 1 -4 -15 -3 -23 1 -25 3 -12 12 13 10 13 13
1 24 -9 6 -20 9 -26 5 -16 -10 -12 11 5 25 10 9 15 9 15 1 0 -6 4 -11 8 -11 5
0 9 7 9 15 0 8 -5 11 -10 8 -6 -4 -8 5 -5 21 6 31 3 33 -11 7z m9 -81 c0 -5
-2 -10 -4 -10 -3 0 -8 5 -11 10 -3 6 -1 10 4 10 6 0 11 -4 11 -10z"/>
<path d="M5964 2908 c-12 -19 9 -28 23 -11 14 17 14 17 9 0 -3 -10 -6 -23 -6
-28 0 -5 -3 -8 -7 -6 -5 1 -9 -1 -10 -5 -4 -11 -2 -11 29 1 25 9 27 13 17 35
-11 23 -44 32 -55 14z"/>
<path d="M4180 2896 c7 -7 13 -7 20 0 6 6 3 10 -10 10 -13 0 -16 -4 -10 -10z"/>
<path d="M4939 2903 c-1 -5 -1 -12 0 -17 1 -5 -5 -6 -13 -3 -9 4 -13 0 -11
-11 2 -9 4 -21 5 -27 1 -10 20 30 19 41 0 4 5 11 13 15 10 7 10 9 1 9 -7 0
-14 -3 -14 -7z"/>
<path d="M5011 2901 c-17 -11 -24 -41 -9 -41 6 0 8 7 4 15 -7 20 3 19 28 -2
21 -18 21 -18 3 3 -9 11 -14 24 -10 27 9 10 1 8 -16 -2z"/>
<path d="M5160 2890 c0 -5 7 -7 15 -4 8 4 15 8 15 10 0 2 -7 4 -15 4 -8 0 -15
-4 -15 -10z"/>
<path d="M5475 2889 c-4 -6 -13 -8 -21 -5 -8 3 -17 -1 -20 -9 -4 -8 -11 -12
-18 -8 -6 3 -7 2 -3 -2 13 -15 36 -14 30 1 -3 9 0 12 9 9 8 -3 21 1 28 10 7 8
10 15 7 15 -3 0 -9 -5 -12 -11z"/>
<path d="M5525 2880 c-10 -11 -21 -17 -26 -15 -4 3 -10 1 -14 -4 -3 -6 3 -8
14 -6 24 4 46 -19 35 -37 -6 -10 -3 -9 9 1 16 13 16 15 -4 31 -19 17 -19 19
-2 28 10 6 15 13 12 16 -3 4 -14 -3 -24 -14z"/>
<path d="M5565 2890 c-3 -5 -4 -14 -1 -19 4 -5 0 -12 -6 -14 -10 -4 -10 -6 0
-6 7 -1 21 7 30 16 16 16 16 16 -2 10 -14 -5 -17 -4 -12 8 6 17 0 20 -9 5z"/>
<path d="M5686 2891 c-4 -5 -2 -12 3 -15 5 -4 12 -2 15 3 4 5 2 12 -3 15 -5 4
-12 2 -15 -3z"/>
<path d="M4505 2880 c-3 -5 1 -20 9 -32 9 -12 16 -17 16 -11 0 7 -4 15 -10 18
-5 3 -10 11 -10 16 0 6 4 8 9 4 5 -3 12 -1 16 5 3 5 -1 10 -9 10 -8 0 -18 -4
-21 -10z"/>
<path d="M4595 2880 c-3 -5 -1 -11 5 -15 6 -4 8 -10 5 -15 -3 -5 2 -16 11 -24
17 -17 12 -20 -34 -18 -13 1 -20 -3 -16 -9 3 -6 13 -8 21 -4 13 4 14 3 3 -10
-7 -8 -9 -15 -4 -16 5 0 20 -3 34 -5 30 -6 50 18 42 49 -5 20 -4 21 12 8 9 -8
14 -16 12 -19 -5 -4 18 -32 27 -32 10 0 0 34 -10 37 -6 2 -8 14 -5 26 5 20 4
20 -11 8 -9 -7 -17 -10 -17 -5 0 4 -5 3 -12 -4 -19 -19 -25 -14 -23 21 2 26
-1 33 -16 34 -10 1 -21 -2 -24 -7z m25 -10 c0 -5 -2 -10 -4 -10 -3 0 -8 5 -11
10 -3 6 -1 10 4 10 6 0 11 -4 11 -10z m36 -72 c5 -8 2 -9 -9 -5 -11 4 -17 1
-17 -9 0 -8 -5 -12 -10 -9 -8 5 -7 11 1 21 14 17 25 18 35 2z"/>
<path d="M4735 2880 c-4 -6 -4 -14 -1 -17 3 -4 6 -1 6 5 0 7 7 12 15 12 17 0
20 -16 5 -23 -6 -3 -5 -4 2 -3 7 2 13 9 13 17 0 17 -31 24 -40 9z"/>
<path d="M4965 2881 c3 -6 -3 -14 -12 -20 -10 -6 -13 -11 -7 -11 12 0 34 20
34 32 0 4 -5 8 -11 8 -5 0 -8 -4 -4 -9z"/>
<path d="M5723 2875 c0 -8 4 -12 8 -9 4 2 9 -1 11 -8 3 -9 6 -9 11 -1 4 7 -1
16 -11 22 -14 7 -19 6 -19 -4z"/>
<path d="M5910 2865 c5 -14 6 -25 1 -25 -5 0 -12 7 -15 16 -4 9 -9 14 -12 11
-3 -3 0 -14 7 -26 15 -23 42 -10 32 16 -4 9 -2 14 3 10 6 -3 16 -1 24 5 12 8
12 9 -2 4 -10 -3 -18 -1 -18 4 0 6 -7 10 -15 10 -11 0 -12 -5 -5 -25z"/>
<path d="M6045 2880 c-3 -5 1 -10 10 -10 9 0 13 5 10 10 -3 6 -8 10 -10 10 -2
0 -7 -4 -10 -10z"/>
<path d="M4344 2873 c3 -4 0 -13 -6 -22 -10 -12 -7 -12 8 2 11 9 23 16 25 15
2 -2 3 -1 1 1 -1 3 -10 6 -18 7 -9 1 -13 0 -10 -3z"/>
<path d="M4460 2866 c0 -8 -8 -17 -17 -20 -11 -3 -9 -4 6 -3 13 1 26 -4 29
-12 3 -9 0 -11 -8 -6 -9 6 -9 3 -1 -14 7 -11 17 -21 24 -20 9 0 9 2 0 6 -21 8
-15 22 7 16 11 -3 20 -9 20 -14 0 -16 19 -9 30 11 7 14 7 20 0 20 -5 0 -10 -8
-11 -17 0 -11 -3 -13 -6 -5 -2 6 -14 12 -26 12 -17 0 -19 2 -8 9 11 7 9 10 -8
16 -11 3 -21 11 -21 16 0 6 5 7 12 3 7 -4 8 -3 4 4 -10 17 -26 15 -26 -2z"/>
<path d="M4546 2872 c-2 -4 -1 -14 3 -21 6 -9 10 -10 15 -2 4 6 12 8 18 5 7
-4 8 -2 4 4 -4 6 -14 8 -23 5 -11 -4 -14 -3 -9 5 4 7 5 12 2 12 -3 0 -7 -4
-10 -8z"/>
<path d="M4685 2870 c3 -5 8 -10 11 -10 2 0 4 5 4 10 0 6 -5 10 -11 10 -5 0
-7 -4 -4 -10z"/>
<path d="M5377 2862 c-12 -13 -13 -21 -6 -32 9 -12 10 -12 5 3 -6 20 4 22 24
5 12 -11 12 -10 1 4 -7 9 -10 22 -6 28 10 16 0 12 -18 -8z"/>
<path d="M5061 2862 c1 -4 0 -10 -1 -14 -1 -5 -3 -14 -4 -20 -1 -7 -9 -12 -18
-10 -8 1 -19 -5 -22 -15 -4 -10 -4 -14 0 -10 4 4 13 2 20 -4 19 -16 35 -2 30
26 -6 31 19 54 27 26 3 -11 2 -22 -2 -24 -3 -2 1 -2 9 1 8 2 21 5 28 5 20 1
-20 37 -46 42 -12 2 -21 1 -21 -3z m54 -22 c3 -5 1 -10 -4 -10 -6 0 -11 5 -11
10 0 6 2 10 4 10 3 0 8 -4 11 -10z m-55 -42 c0 -4 -4 -8 -9 -8 -6 0 -12 4 -15
8 -3 5 1 9 9 9 8 0 15 -4 15 -9z"/>
<path d="M5330 2860 c0 -5 5 -10 11 -10 5 0 7 5 4 10 -3 6 -8 10 -11 10 -2 0
-4 -4 -4 -10z"/>
<path d="M5674 2862 c3 -6 -2 -15 -11 -21 -16 -9 -16 -10 -2 -11 20 0 33 27
17 36 -6 4 -8 3 -4 -4z"/>
<path d="M4376 2845 c-11 -8 -15 -15 -9 -15 7 0 15 5 18 10 4 6 11 7 17 4 7
-4 8 -2 4 4 -9 14 -7 15 -30 -3z"/>
<path d="M5011 2846 c-10 -11 -9 -14 1 -12 14 2 23 15 15 22 -2 2 -10 -2 -16
-10z"/>
<path d="M4956 2841 c-15 -6 -16 -10 -7 -16 10 -6 10 -9 1 -15 -9 -5 -8 -9 2
-13 9 -3 14 3 15 16 1 11 8 24 15 28 16 11 0 10 -26 0z"/>
<path d="M5209 2829 c-12 -23 -11 -29 2 -29 5 0 7 4 4 10 -4 6 1 7 11 3 11 -4
13 -8 6 -11 -7 -2 -10 -8 -6 -13 10 -16 -13 -10 -40 12 -15 12 -26 17 -25 12
4 -20 -2 -24 -18 -12 -16 12 -17 12 -6 -2 7 -9 11 -18 8 -21 -3 -2 2 -5 10 -5
8 0 12 4 9 8 -2 4 0 10 5 13 8 5 25 -29 22 -46 -1 -5 4 -8 9 -8 6 0 10 -7 10
-15 0 -19 4 -19 40 0 21 11 30 11 32 3 3 -8 11 -9 24 -3 10 4 22 7 27 7 4 -1
7 3 7 9 0 5 5 7 10 4 6 -4 8 -11 5 -16 -4 -5 6 -9 22 -9 23 1 25 2 11 11 -9 5
-15 16 -12 23 6 15 -12 16 -33 3 -6 -4 -14 -1 -16 5 -4 8 -8 4 -12 -9 -4 -13
-11 -23 -16 -23 -6 0 -3 12 5 27 12 24 12 29 -3 41 -9 7 -11 11 -4 7 15 -7 37
31 23 40 -6 4 -10 3 -9 -2 4 -24 -1 -37 -12 -26 -17 17 -43 5 -28 -13 9 -11 9
-13 -2 -9 -10 4 -15 -2 -16 -17 -1 -13 1 -18 5 -13 4 6 14 11 24 13 12 2 15
-3 11 -17 -5 -18 -35 -22 -51 -6 -3 2 -11 0 -19 -6 -20 -17 -16 -2 9 32 23 30
23 31 3 46 -20 15 -20 15 0 9 11 -3 26 -2 33 3 8 5 2 8 -18 8 -19 0 -35 -7
-41 -18z m1 -59 c0 -5 -2 -10 -4 -10 -3 0 -8 5 -11 10 -3 6 -1 10 4 10 6 0 11
-4 11 -10z m40 -34 c0 -2 -7 -6 -15 -10 -8 -3 -15 -1 -15 4 0 6 7 10 15 10 8
0 15 -2 15 -4z"/>
<path d="M5708 2836 c-17 -13 -14 -26 5 -26 6 0 7 3 4 7 -4 3 -2 12 4 20 14
16 9 16 -13 -1z"/>
<path d="M4835 2831 c-3 -5 -2 -12 3 -15 5 -3 9 1 9 9 0 17 -3 19 -12 6z"/>
<path d="M5425 2830 c-3 -5 -1 -10 4 -10 6 0 11 5 11 10 0 6 -2 10 -4 10 -3 0
-8 -4 -11 -10z"/>
<path d="M4983 2808 c-2 -16 1 -18 10 -9 7 7 8 14 1 21 -6 6 -10 2 -11 -12z"/>
<path d="M5875 2820 c3 -5 8 -10 11 -10 2 0 4 5 4 10 0 6 -5 10 -11 10 -5 0
-7 -4 -4 -10z"/>
<path d="M5730 2794 c0 -8 5 -12 10 -9 6 4 8 11 5 16 -9 14 -15 11 -15 -7z"/>
<path d="M5561 2756 c-10 -12 -9 -14 5 -12 10 2 20 8 22 14 5 17 -13 15 -27
-2z"/>
<path d="M4838 2733 c7 -3 16 -2 19 1 4 3 -2 6 -13 5 -11 0 -14 -3 -6 -6z"/>
</g>
</svg>
